inDegrees=no
num_controls=7
num_derivatives=13
num_iterations=99
num_multipliers=7
num_parameters=0
num_slacks=7
num_states=26
objective=5.432613
objective_accelerations=0.797694
objective_balance=0.024858
objective_effort=0.246641
objective_height=4.264438
objective_ligament=0.098982
solver_duration=1147.744841
status=Solve_Succeeded
success=true
DataType=double
version=3
OpenSimVersion=4.4-2022-07-23-0e9fedc
endheader
time	/jointset/ground_pelvis/pelvis_tilt/value	/jointset/ground_pelvis/pelvis_tx/value	/jointset/ground_pelvis/pelvis_ty/value	/jointset/hip_l/hip_flexion_l/value	/jointset/hip_l/hip_adduction_l/value	/jointset/hip_l/hip_rotation_l/value	/jointset/back/lumbar_extension/value	/jointset/patellofemoral_l/patellar_flexion_l/value	/jointset/knee_l/knee_flexion_l/value	/jointset/knee_l/knee_adduction_l/value	/jointset/knee_l/knee_rotation_l/value	/jointset/ankle_l/ankle_angle_l/value	/jointset/subtalar_l/subtalar_angle_l/value	/jointset/ground_pelvis/pelvis_tilt/speed	/jointset/ground_pelvis/pelvis_tx/speed	/jointset/ground_pelvis/pelvis_ty/speed	/jointset/hip_l/hip_flexion_l/speed	/jointset/hip_l/hip_adduction_l/speed	/jointset/hip_l/hip_rotation_l/speed	/jointset/back/lumbar_extension/speed	/jointset/patellofemoral_l/patellar_flexion_l/speed	/jointset/knee_l/knee_flexion_l/speed	/jointset/knee_l/knee_adduction_l/speed	/jointset/knee_l/knee_rotation_l/speed	/jointset/ankle_l/ankle_angle_l/speed	/jointset/subtalar_l/subtalar_angle_l/speed	/forceset/tau_hip_flexion_l	/forceset/tau_hip_adduction_l	/forceset/tau_hip_rotation_l	/forceset/tau_knee_flexion_l	/forceset/tau_ankle_angle_l	/forceset/tau_subtalar_angle_l	/forceset/tau_lumbar_extension	lambda_cid13_p0	lambda_cid13_p1	lambda_cid13_p2	lambda_cid13_p3	lambda_cid13_p4	lambda_cid13_p5	lambda_cid14_p0	/jointset/ground_pelvis/pelvis_tilt/accel	/jointset/ground_pelvis/pelvis_tx/accel	/jointset/ground_pelvis/pelvis_ty/accel	/jointset/hip_l/hip_flexion_l/accel	/jointset/hip_l/hip_adduction_l/accel	/jointset/hip_l/hip_rotation_l/accel	/jointset/back/lumbar_extension/accel	/jointset/patellofemoral_l/patellar_flexion_l/accel	/jointset/knee_l/knee_flexion_l/accel	/jointset/knee_l/knee_adduction_l/accel	/jointset/knee_l/knee_rotation_l/accel	/jointset/ankle_l/ankle_angle_l/accel	/jointset/subtalar_l/subtalar_angle_l/accel	gamma_cid13_p0	gamma_cid13_p1	gamma_cid13_p2	gamma_cid13_p3	gamma_cid13_p4	gamma_cid13_p5	gamma_cid14_p0
0.5	-0.4315170511562192	-0.08013357684153098	0.7562710356125691	1.273654900569287	-0.3512438511364436	-0.04162342345192718	-0.412724939269561	0.7848332037361676	0.7848332037362381	-0.04425166076686225	-0.1744273209363278	0.0533259261081583	0.08567680846649156	-1.337259038063061	-0.4219870172193281	-0.5811033492434581	3.100996276958068	0.0572764837776771	0.4849356072665618	-0.2636717021552685	1.520859239410844	1.520859239411101	0.2268165086776853	0.001648109141863079	-0.130304330632657	0.01489605592524933	-0.1714392298306448	-0.005883684471173471	0.002903381034155763	-0.1580094835827304	0.1090990378848329	0.01748332337659285	0.1542086833229883	10.92165756130748	-7.692098010261095	-1.125804089180788	-10.64043204361814	-434.3610475640545	-72.19416846988958	-11.70562701039869	0.6561840529582881	0.8205553193126321	-0.428643887539959	-1.942127297475384	0.1823289737186772	-0.5427326053836911	1.709281979057545	-1.282680777051634	-1.28268077705164	-0.346969236558324	0.01577690477614111	-0.1399570189496247	0.1522480370738405	-2.217102666885167e-07	-3.198359923306885e-07	1.737871087321838e-06	1.784504772682137e-08	-6.466335609884397e-07	7.667193348016581e-07	-3.561051037711066e-07
0.51	-0.4448537492825944	-0.08431188425714542	0.7504400603371509	1.304561709807487	-0.3506640872527235	-0.0367998257926191	-0.4152778044982941	0.7999749475604054	0.7999749475599774	-0.04200590362562892	-0.1744105573876895	0.0520153664700513	0.08583096244272918	-1.329902144921371	-0.413633373113471	-0.5849537408542618	3.079946105328967	0.05866335181392006	0.4797119770339691	-0.2469204957003826	1.507258944274001	1.507258944274088	0.2223305380104848	0.001682450175777082	-0.1318093220069312	0.0159211258161601	-0.1785592440549741	-0.005566706261178502	0.002314213019275015	-0.158712367858724	0.1110151304143889	0.01838419700707473	0.1591356747094018	11.36423294953842	-7.99391894209929	-1.268348983719282	-10.93386701025162	-438.498954003638	-72.48174118707463	-11.07456127760635	0.8021606785123729	0.8489455578409063	-0.3426750963503584	-2.249442998763292	0.1147480343655462	-0.5232917506461091	1.655167164353947	-1.433218215771921	-1.433218215797481	-0.5000684686400862	-0.005648599322357548	-0.1560294203032437	0.0753773761013177	-2.351342522713418e-07	-7.780754759822838e-08	2.042144364483345e-06	7.116926374873518e-08	-6.431713573405351e-07	8.339327835965777e-07	-3.576401047887914e-07
0.52	-0.4581115347307813	-0.08840541991137618	0.7445746934859235	1.335245421148788	-0.3500708782255077	-0.03203068713921167	-0.4176637322253466	0.8149737855660427	0.8149737855660906	-0.03980513768705338	-0.1743940326899047	0.05068970507347595	0.08599491530007704	-1.32147650243021	-0.4050326649425937	-0.587981664404967	3.056376697574459	0.05996551248162522	0.4740438060633313	-0.2302842018195329	1.492278075786309	1.492278075786227	0.2178182678697107	0.001600339128873314	-0.1333246823266817	0.01685583214713061	-0.1856792582792285	-0.005249728050774088	0.001725045011247074	-0.1594152521346825	0.112931222944036	0.01928507063793744	0.1640626660957845	11.80705722410945	-8.29675952958346	-1.409615681291254	-11.24297140763118	-442.6381526639773	-72.84174386836803	-10.44686369450838	0.8699339228525103	0.8699681323167986	-0.2641502755201832	-2.445974522557371	0.1653875000110942	-0.6316407529936137	1.686299464250744	-1.5587954472215	-1.558795447221209	-0.3522291312731629	-0.007513511388469056	-0.1420308080449287	0.1341753250853682	-2.273488051843043e-07	3.371371301606138e-08	2.095824805536661e-06	8.683706397283064e-08	-5.985980793533674e-07	8.584635158057438e-07	-3.444484299305678e-07
0.53	-0.4712800092781651	-0.09241169796388285	0.7386831657006552	1.365681296256487	-0.3494649415701658	-0.02731968731982789	-0.4198838707823422	0.829816316816936	0.829816316816403	-0.03764972354739191	-0.1743783239798102	0.04934917814784414	0.08616799737413167	-1.312054299030402	-0.3961792049014184	-0.5901823847094957	3.030393614486281	0.06120659349819613	0.468102340249528	-0.2137797388554833	1.476022007376541	1.476022007376551	0.2132556988910123	0.00152929531693367	-0.1347559081663375	0.01775241979284605	-0.1924999272012244	-0.005229993159741855	0.001188020421257707	-0.1606877120744393	0.1157795974969854	0.01991515261914654	0.1687489639199038	12.53378234565243	-8.504846249230093	-1.596667856728253	-11.80726541490558	-446.8286542296707	-73.0981918271272	-9.823406417047773	1.002936429168253	0.8996150518031091	-0.1769217541143973	-2.735237014318358	0.1009558476421932	-0.5837679989193112	1.627085323198254	-1.689870077791348	-1.689870077777962	-0.5095557074797611	-0.008290854930323891	-0.1399381522167384	0.06591002423444368	-2.200379475477514e-07	9.781700482230589e-08	2.104628063982723e-06	9.493440719826009e-08	-5.564782651502326e-07	8.835828473052797e-07	-3.341779164077481e-07
